<svg width="14" height="14" viewBox="0 0 14 14" fill="none" xmlns="http://www.w3.org/2000/svg">
<path d="M7.25 0C6.53579 0 5.83762 0.216075 5.24377 0.620901C4.64993 1.02573 4.18708 1.60112 3.91377 2.27432C3.64045 2.94753 3.56894 3.6883 3.70828 4.40296C3.84761 5.11763 4.19154 5.77409 4.69656 6.28934C5.20158 6.80459 5.84502 7.15547 6.54551 7.29763C7.24599 7.43979 7.97207 7.36683 8.63191 7.08798C9.29176 6.80913 9.85574 6.33691 10.2525 5.73105C10.6493 5.12518 10.8611 4.41288 10.8611 3.68421C10.8611 2.7071 10.4807 1.77 9.80344 1.07908C9.12623 0.388157 8.20773 0 7.25 0ZM7.25 5.89474C6.82147 5.89474 6.40257 5.76509 6.04626 5.5222C5.68996 5.2793 5.41225 4.93406 5.24826 4.53014C5.08427 4.12622 5.04136 3.68176 5.12496 3.25296C5.20857 2.82416 5.41492 2.43028 5.71794 2.12113C6.02095 1.81198 6.40701 1.60145 6.8273 1.51616C7.2476 1.43087 7.68324 1.47464 8.07915 1.64195C8.47505 1.80926 8.81344 2.09259 9.05152 2.45611C9.28959 2.81963 9.41667 3.24701 9.41667 3.68421C9.41667 4.27048 9.18839 4.83273 8.78206 5.24729C8.37574 5.66184 7.82464 5.89474 7.25 5.89474ZM13.75 14V13.2632C13.75 11.8952 13.2174 10.5833 12.2693 9.61598C11.3212 8.64868 10.0353 8.10526 8.69444 8.10526H5.80556C4.46474 8.10526 3.17884 8.64868 2.23074 9.61598C1.28264 10.5833 0.75 11.8952 0.75 13.2632V14H2.19444V13.2632C2.19444 12.286 2.5749 11.349 3.25211 10.658C3.92933 9.9671 4.84783 9.57895 5.80556 9.57895H8.69444C9.65217 9.57895 10.5707 9.9671 11.2479 10.658C11.9251 11.349 12.3056 12.286 12.3056 13.2632V14H13.75Z" fill="#626262"/>
</svg>
