<svg width="15" height="14" viewBox="0 0 15 14" fill="none" xmlns="http://www.w3.org/2000/svg">
<path d="M10.2472 6.25275C10.288 6.29339 10.3203 6.34167 10.3424 6.39482C10.3644 6.44797 10.3758 6.50495 10.3758 6.5625C10.3758 6.62005 10.3644 6.67703 10.3424 6.73018C10.3203 6.78333 10.288 6.83161 10.2472 6.87225L7.62225 9.49725C7.58161 9.53799 7.53333 9.57032 7.48018 9.59237C7.42703 9.61443 7.37005 9.62578 7.3125 9.62578C7.25495 9.62578 7.19797 9.61443 7.14482 9.59237C7.09167 9.57032 7.04339 9.53799 7.00275 9.49725L5.69025 8.18475C5.64957 8.14407 5.61731 8.09578 5.59529 8.04264C5.57328 7.98949 5.56195 7.93253 5.56195 7.875C5.56195 7.81747 5.57328 7.76051 5.59529 7.70736C5.61731 7.65422 5.64957 7.60593 5.69025 7.56525C5.7724 7.4831 5.88382 7.43695 6 7.43695C6.05753 7.43695 6.11449 7.44828 6.16764 7.47029C6.22078 7.49231 6.26907 7.52457 6.30975 7.56525L7.3125 8.56888L9.62775 6.25275C9.66839 6.21201 9.71667 6.17968 9.76982 6.15763C9.82297 6.13557 9.87995 6.12422 9.9375 6.12422C9.99505 6.12422 10.052 6.13557 10.1052 6.15763C10.1583 6.17968 10.2066 6.21201 10.2472 6.25275Z" fill="#626262"/>
<path d="M3.8125 0C3.92853 0 4.03981 0.0460936 4.12186 0.128141C4.20391 0.210188 4.25 0.321468 4.25 0.4375V0.875H11.25V0.4375C11.25 0.321468 11.2961 0.210188 11.3781 0.128141C11.4602 0.0460936 11.5715 0 11.6875 0C11.8035 0 11.9148 0.0460936 11.9969 0.128141C12.0789 0.210188 12.125 0.321468 12.125 0.4375V0.875H13C13.4641 0.875 13.9092 1.05937 14.2374 1.38756C14.5656 1.71575 14.75 2.16087 14.75 2.625V12.25C14.75 12.7141 14.5656 13.1592 14.2374 13.4874C13.9092 13.8156 13.4641 14 13 14H2.5C2.03587 14 1.59075 13.8156 1.26256 13.4874C0.934374 13.1592 0.75 12.7141 0.75 12.25V2.625C0.75 2.16087 0.934374 1.71575 1.26256 1.38756C1.59075 1.05937 2.03587 0.875 2.5 0.875H3.375V0.4375C3.375 0.321468 3.42109 0.210188 3.50314 0.128141C3.58519 0.0460936 3.69647 0 3.8125 0ZM1.625 3.5V12.25C1.625 12.4821 1.71719 12.7046 1.88128 12.8687C2.04538 13.0328 2.26794 13.125 2.5 13.125H13C13.2321 13.125 13.4546 13.0328 13.6187 12.8687C13.7828 12.7046 13.875 12.4821 13.875 12.25V3.5H1.625Z" fill="#626262"/>
</svg>
