<svg width="12" height="16" viewBox="0 0 12 16" fill="none" xmlns="http://www.w3.org/2000/svg">
<path d="M0 2.30435C0 1.80568 0.210714 1.32742 0.585786 0.974805C0.960859 0.622186 1.46957 0.424088 2 0.424088L10 0.424088C10.5304 0.424088 11.0391 0.622186 11.4142 0.974805C11.7893 1.32742 12 1.80568 12 2.30435V14.9961C12 15.0812 11.9754 15.1646 11.9289 15.2375C11.8824 15.3105 11.8157 15.3702 11.736 15.4103C11.6563 15.4504 11.5664 15.4695 11.4761 15.4654C11.3858 15.4614 11.2983 15.4343 11.223 15.3872L6 12.7408L0.777 15.3872C0.701705 15.4343 0.61423 15.4614 0.523891 15.4654C0.433553 15.4695 0.343733 15.4504 0.263999 15.4103C0.184266 15.3702 0.117604 15.3105 0.0711141 15.2375C0.024624 15.1646 4.67204e-05 15.0812 0 14.9961V2.30435ZM2 1.36422C1.73478 1.36422 1.48043 1.46327 1.29289 1.63958C1.10536 1.81589 1 2.05501 1 2.30435V14.1181L5.723 11.7847C5.80506 11.7333 5.90143 11.7059 6 11.7059C6.09857 11.7059 6.19494 11.7333 6.277 11.7847L11 14.1181V2.30435C11 2.05501 10.8946 1.81589 10.7071 1.63958C10.5196 1.46327 10.2652 1.36422 10 1.36422H2Z" fill="white"/>
</svg>
