<svg width="17" height="15" viewBox="0 0 17 15" fill="none" xmlns="http://www.w3.org/2000/svg">
<path d="M15.9562 5.12917L14.7934 1.70917C14.6247 1.21124 14.3003 0.778084 13.8661 0.471257C13.432 0.16443 12.9103 -0.000465171 12.3752 9.85646e-07H4.62485C4.08968 -0.000465171 3.56797 0.16443 3.13385 0.471257C2.69973 0.778084 2.37528 1.21124 2.2066 1.70917L1.0438 5.12917C0.734589 5.25601 0.470526 5.46964 0.284807 5.74321C0.0990872 6.01677 -4.08765e-07 6.33805 0 6.66667V10.8333C0 11.4483 0.3434 11.98 0.85 12.2692V14.1667C0.85 14.3877 0.939553 14.5996 1.09896 14.7559C1.25837 14.9122 1.47457 15 1.7 15H2.55C2.77543 15 2.99163 14.9122 3.15104 14.7559C3.31045 14.5996 3.4 14.3877 3.4 14.1667V12.5H13.6V14.1667C13.6 14.3877 13.6896 14.5996 13.849 14.7559C14.0084 14.9122 14.2246 15 14.45 15H15.3C15.5254 15 15.7416 14.9122 15.901 14.7559C16.0604 14.5996 16.15 14.3877 16.15 14.1667V12.2692C16.4079 12.1242 16.6222 11.9151 16.7715 11.663C16.9207 11.411 16.9995 11.1248 17 10.8333V6.66667C17 6.33805 16.9009 6.01677 16.7152 5.74321C16.5295 5.46964 16.2654 5.25601 15.9562 5.12917ZM4.62485 1.66667H12.3743C12.7407 1.66667 13.0654 1.895 13.181 2.23667L14.1211 5H2.87895L3.8182 2.23667C3.8746 2.07066 3.98286 1.92627 4.12764 1.82397C4.27242 1.72166 4.44638 1.66663 4.62485 1.66667ZM2.975 10C2.80751 9.99994 2.64167 9.96755 2.48695 9.90466C2.33223 9.84177 2.19166 9.74962 2.07326 9.63347C1.95487 9.51732 1.86097 9.37944 1.79692 9.22771C1.73288 9.07598 1.69994 8.91337 1.7 8.74917C1.70006 8.58496 1.7331 8.42237 1.79725 8.27069C1.8614 8.119 1.95539 7.98118 2.07386 7.86511C2.19234 7.74904 2.33297 7.65698 2.48773 7.59419C2.6425 7.5314 2.80836 7.49911 2.97585 7.49917C3.31411 7.49928 3.63848 7.63112 3.87759 7.8657C4.1167 8.10028 4.25096 8.41837 4.25085 8.75C4.25074 9.08163 4.11625 9.39964 3.87699 9.63406C3.63772 9.86848 3.31326 10.0001 2.975 10ZM14.025 10C13.8575 9.99994 13.6917 9.96755 13.5369 9.90466C13.3822 9.84177 13.2417 9.74962 13.1233 9.63347C13.0049 9.51732 12.911 9.37944 12.8469 9.22771C12.7829 9.07598 12.7499 8.91337 12.75 8.74917C12.7501 8.58496 12.7831 8.42237 12.8472 8.27069C12.9114 8.119 13.0054 7.98118 13.1239 7.86511C13.2423 7.74904 13.383 7.65698 13.5377 7.59419C13.6925 7.5314 13.8584 7.49911 14.0259 7.49917C14.3641 7.49928 14.6885 7.63112 14.9276 7.8657C15.1667 8.10028 15.301 8.41837 15.3008 8.75C15.3007 9.08163 15.1663 9.39964 14.927 9.63406C14.6877 9.86848 14.3633 10.0001 14.025 10Z" fill="#626262"/>
</svg>
