<svg width="21" height="24" viewBox="0 0 21 24" fill="none" xmlns="http://www.w3.org/2000/svg">
<path d="M8.96408 4.00568C8.17045 4.00568 7.39464 4.24101 6.73477 4.68193C6.07489 5.12285 5.56057 5.74954 5.25686 6.48276C4.95315 7.21598 4.87369 8.02279 5.02852 8.80117C5.18335 9.57955 5.56552 10.2945 6.1267 10.8557C6.68788 11.4169 7.40287 11.7991 8.18125 11.9539C8.95963 12.1087 9.76644 12.0293 10.4997 11.7256C11.2329 11.4218 11.8596 10.9075 12.3005 10.2477C12.7414 9.58778 12.9767 8.81197 12.9767 8.01834C12.9767 6.95412 12.554 5.93348 11.8015 5.18096C11.0489 4.42844 10.0283 4.00568 8.96408 4.00568ZM8.96408 10.6304C8.44746 10.6304 7.94244 10.4772 7.51289 10.1902C7.08333 9.90319 6.74853 9.49524 6.55083 9.01794C6.35313 8.54065 6.3014 8.01544 6.40219 7.50875C6.50298 7.00205 6.75175 6.53662 7.11706 6.17132C7.48237 5.80601 7.94779 5.55724 8.45449 5.45645C8.96118 5.35566 9.48639 5.40739 9.96368 5.60509C10.441 5.80279 10.8489 6.13759 11.1359 6.56714C11.423 6.9967 11.5762 7.50172 11.5762 8.01834C11.5743 8.70989 11.2983 9.37249 10.8086 9.86084C10.319 10.3492 9.65564 10.6234 8.96408 10.6234V10.6304Z" fill="#626262"/>
<path d="M17.2065 8.74663C16.7314 8.73342 16.2602 8.65568 15.806 8.51554V8.9147C15.806 11.7579 14.1113 14.2859 12.8717 16.1347L12.6196 16.5059C11.4151 18.3126 9.81848 20.3364 8.95712 21.3379C8.13078 20.3364 6.4991 18.3126 5.2946 16.5059L5.05651 16.1067C3.81699 14.2579 2.11529 11.7299 2.11529 8.88669C2.11953 7.70916 2.42762 6.55265 3.00975 5.52906C3.59187 4.50548 4.42833 3.64946 5.43819 3.04382C6.44804 2.43819 7.59712 2.10345 8.77424 2.07198C9.95136 2.04051 11.1167 2.31338 12.1574 2.86419C12.2132 2.38268 12.3357 1.91129 12.5216 1.46361C11.264 0.856242 9.87258 0.578941 8.47825 0.657821C7.08393 0.736702 5.73262 1.16917 4.55158 1.9145C3.37054 2.65983 2.39864 3.69349 1.72739 4.91815C1.05615 6.14281 0.707643 7.51817 0.714705 8.9147C0.714705 12.1851 2.54947 14.9232 3.89402 16.919L4.13912 17.2832C5.47687 19.222 6.91197 21.0919 8.43891 22.8855L8.97113 23.5088L9.50335 22.8855C11.0301 21.0917 12.4652 19.2219 13.8031 17.2832L14.0482 16.912C15.3858 14.9162 17.2206 12.1851 17.2206 8.9147C17.2135 8.85868 17.2065 8.80266 17.2065 8.74663Z" fill="#626262"/>
<path d="M17.3677 7.0029C19.3015 7.0029 20.8691 5.43525 20.8691 3.50145C20.8691 1.56765 19.3015 0 17.3677 0C15.4339 0 13.8662 1.56765 13.8662 3.50145C13.8662 5.43525 15.4339 7.0029 17.3677 7.0029Z" fill="#626262"/>
</svg>
