<svg width="14" height="14" viewBox="0 0 14 14" fill="none" xmlns="http://www.w3.org/2000/svg">
<path opacity="0.5" d="M13.8897 7.29042L13.8674 7.31277L10.7469 10.4404C10.6621 10.5257 10.5469 10.5739 10.4266 10.5745C10.3391 10.5732 10.254 10.5464 10.1816 10.4972C10.1093 10.448 10.053 10.3787 10.0197 10.2978C9.98638 10.217 9.97755 10.1281 9.99428 10.0422C10.011 9.95639 10.0526 9.87735 10.1138 9.81489L12.4747 7.44681H5.2133C5.09479 7.44681 4.98113 7.39973 4.89733 7.31594C4.81353 7.23215 4.76645 7.1185 4.76645 7C4.76645 6.8815 4.81353 6.76785 4.89733 6.68406C4.98113 6.60027 5.09479 6.55319 5.2133 6.55319H12.4747L10.1138 4.18511C10.0714 4.14477 10.0377 4.09624 10.0147 4.04248C9.99164 3.98872 9.97975 3.93083 9.97975 3.87234C9.97975 3.81385 9.99164 3.75596 10.0147 3.7022C10.0377 3.64844 10.0714 3.59991 10.1138 3.55957C10.1548 3.51701 10.204 3.48314 10.2584 3.46001C10.3127 3.43688 10.3712 3.42496 10.4303 3.42496C10.4894 3.42496 10.5479 3.43688 10.6023 3.46001C10.6567 3.48314 10.7059 3.51701 10.7469 3.55957L13.8674 6.68723L13.8897 6.70957L13.9046 6.72447C13.9197 6.74256 13.9322 6.76259 13.9419 6.78404H13.9493C13.9826 6.8485 14 6.92 14 6.99255C14 7.06511 13.9826 7.1366 13.9493 7.20106H13.9419C13.9322 7.22251 13.9197 7.24255 13.9046 7.26064L13.8897 7.29042ZM5.2133 13.1064H1.04266C1.00316 13.1064 0.96527 13.0907 0.937336 13.0628C0.909402 13.0348 0.893709 12.9969 0.893709 12.9574V1.04255C0.893709 1.00305 0.909402 0.96517 0.937336 0.937239C0.96527 0.909308 1.00316 0.893617 1.04266 0.893617H5.2133C5.33182 0.893617 5.44548 0.846543 5.52928 0.76275C5.61308 0.678957 5.66016 0.565309 5.66016 0.446809C5.66016 0.328308 5.61308 0.21466 5.52928 0.130867C5.44548 0.0470743 5.33182 0 5.2133 0H1.04266C0.76613 0 0.500925 0.10984 0.305388 0.305357C0.109852 0.500873 0 0.766051 0 1.04255V12.9574C0 13.2339 0.109852 13.4991 0.305388 13.6946C0.500925 13.8902 0.76613 14 1.04266 14H5.2133C5.33182 14 5.44548 13.9529 5.52928 13.8691C5.61308 13.7853 5.66016 13.6717 5.66016 13.5532C5.66016 13.4347 5.61308 13.321 5.52928 13.2372C5.44548 13.1535 5.33182 13.1064 5.2133 13.1064Z" fill="black"/>
</svg>
