<svg width="14" height="14" viewBox="0 0 14 14" fill="none" xmlns="http://www.w3.org/2000/svg">
<path opacity="0.5" d="M7 0.700012C3.15 0.700012 0 3.22001 0 6.30001C0 7.84001 0.77 9.24001 1.96 10.15C1.96 10.57 1.68 11.69 0 13.3C1.68 13.23 3.22 12.6 4.55 11.55C5.32 11.76 6.16 11.9 7 11.9C10.85 11.9 14 9.38001 14 6.30001C14 3.22001 10.85 0.700012 7 0.700012ZM7 10.8957C3.92 10.8957 1.05828 8.61001 1.05828 6.30001C1.05828 3.99001 3.92 1.79594 7 1.79594C10.08 1.79594 12.876 3.99001 12.876 6.30001C12.876 8.61001 10.08 10.8957 7 10.8957Z" fill="black"/>
</svg>
