<svg width="17" height="20" viewBox="0 0 17 20" fill="none" xmlns="http://www.w3.org/2000/svg">
<path d="M16.2826 17.3935C16.5051 17.1092 16.5523 16.7261 16.4284 16.3746L13.1332 7.82529L16.5314 3.4826C17.0442 2.82725 16.9057 1.86588 16.2213 1.33029C15.5368 0.794701 14.5703 0.891376 14.0575 1.54673L10.6593 5.88942L1.56853 4.74643C1.30772 4.716 1.04859 4.77971 0.839075 4.92578C0.629562 5.07184 0.483853 5.29036 0.428916 5.5409C0.373979 5.79145 0.413532 6.05705 0.540255 6.28855C0.666979 6.52006 0.872294 6.7018 1.1182 6.80014L7.87893 9.44254L4.4807 13.7852L2.16225 13.6896C2.08198 13.6847 2.00251 13.6991 1.93072 13.7316C1.85893 13.7642 1.79696 13.8139 1.75018 13.8764L1.38564 14.3423C1.18174 14.6028 1.29734 14.9988 1.61683 15.1343L4.48193 16.3323L6.33374 18.8253C6.54202 19.1029 6.95419 19.1199 7.15808 18.8593L7.52262 18.3934C7.5721 18.333 7.60544 18.2609 7.61976 18.1834C7.63409 18.1059 7.62896 18.0253 7.60484 17.9486L6.9546 15.7211L10.3528 11.3784L14.5433 17.3055C14.9743 17.9101 15.8501 17.9462 16.2826 17.3935Z" fill="#626262"/>
</svg>
