<svg width="20" height="16" viewBox="0 0 20 16" fill="none" xmlns="http://www.w3.org/2000/svg">
<path d="M19.375 0.473816H0.625C0.45924 0.473816 0.300268 0.526494 0.183058 0.620263C0.065848 0.714031 0 0.841208 0 0.973816C0 1.10642 0.065848 1.2336 0.183058 1.32737C0.300268 1.42114 0.45924 1.47382 0.625 1.47382H19.375C19.5408 1.47382 19.6997 1.42114 19.8169 1.32737C19.9342 1.2336 20 1.10642 20 0.973816C20 0.841208 19.9342 0.714031 19.8169 0.620263C19.6997 0.526494 19.5408 0.473816 19.375 0.473816Z" fill="white"/>
<path d="M15.3636 7.47382H0.636364C0.467589 7.47382 0.305728 7.52649 0.186387 7.62026C0.0670454 7.71403 0 7.84121 0 7.97382C0 8.10642 0.0670454 8.2336 0.186387 8.32737C0.305728 8.42114 0.467589 8.47382 0.636364 8.47382H15.3636C15.5324 8.47382 15.6943 8.42114 15.8136 8.32737C15.933 8.2336 16 8.10642 16 7.97382C16 7.84121 15.933 7.71403 15.8136 7.62026C15.6943 7.52649 15.5324 7.47382 15.3636 7.47382Z" fill="white"/>
<path d="M11.3333 14.4738H0.666667C0.489856 14.4738 0.320287 14.5265 0.195262 14.6203C0.070238 14.714 0 14.8412 0 14.9738C0 15.1064 0.070238 15.2336 0.195262 15.3274C0.320287 15.4211 0.489856 15.4738 0.666667 15.4738H11.3333C11.5101 15.4738 11.6797 15.4211 11.8047 15.3274C11.9298 15.2336 12 15.1064 12 14.9738C12 14.8412 11.9298 14.714 11.8047 14.6203C11.6797 14.5265 11.5101 14.4738 11.3333 14.4738Z" fill="white"/>
</svg>
