<svg width="16" height="16" viewBox="0 0 16 16" fill="none" xmlns="http://www.w3.org/2000/svg">
<path opacity="0.5" d="M13.1 6.94998C13.1 7.22612 13.3239 7.44998 13.6 7.44998C13.8761 7.44998 14.1 7.22612 14.1 6.94998H13.1ZM8 1.34998V0.849976V1.34998ZM1.9 6.94998C1.9 7.22612 2.12386 7.44998 2.4 7.44998C2.67614 7.44998 2.9 7.22612 2.9 6.94998H1.9ZM1 8.74337L0.5 8.7433V8.74337H1ZM2.0605 7.38537L2.18175 7.87045L2.18203 7.87038L2.0605 7.38537ZM3.2785 7.08017L3.15767 6.59499L3.15697 6.59517L3.2785 7.08017ZM3.8 7.48757H4.3V7.48739L3.8 7.48757ZM3.8 11.3117H3.3L3.3 11.3125L3.8 11.3117ZM3.2778 11.7198L3.39947 11.2348L3.39907 11.2347L3.2778 11.7198ZM2.0598 11.4153L1.9383 11.9003L1.93853 11.9003L2.0598 11.4153ZM1 10.0573H0.5V10.0573L1 10.0573ZM15 8.74337H15.5V8.7433L15 8.74337ZM13.9395 7.38537L13.818 7.87038L13.8183 7.87045L13.9395 7.38537ZM12.7215 7.08017L12.843 6.59517L12.8423 6.59499L12.7215 7.08017ZM12.2 7.48757L11.7 7.48739V7.48757H12.2ZM12.2 11.3117L12.7 11.3123V11.3117H12.2ZM12.7215 11.7198L12.8423 12.205L12.8428 12.2048L12.7215 11.7198ZM13.9395 11.4153L13.8183 10.9302L13.8182 10.9302L13.9395 11.4153ZM15 10.0573L15.5 10.0573V10.0573H15ZM5.9 13.6H5.4H5.9ZM10.1 13.6H10.6H10.1ZM14.1 6.94998C14.1 5.33215 13.4573 3.7806 12.3134 2.63662L11.6062 3.34373C12.5627 4.30017 13.1 5.59737 13.1 6.94998H14.1ZM12.3134 2.63662C11.1694 1.49265 9.61782 0.849976 8 0.849976V1.84998C9.3526 1.84998 10.6498 2.3873 11.6062 3.34373L12.3134 2.63662ZM8 0.849976C6.38218 0.849976 4.83062 1.49265 3.68665 2.63662L4.39376 3.34373C5.35019 2.3873 6.6474 1.84998 8 1.84998V0.849976ZM3.68665 2.63662C2.54268 3.7806 1.9 5.33215 1.9 6.94998H2.9C2.9 5.59737 3.43732 4.30017 4.39376 3.34373L3.68665 2.63662ZM1.5 8.74345C1.50003 8.54275 1.56714 8.34783 1.69067 8.18965L0.90252 7.57416C0.641743 7.90809 0.500064 8.31961 0.5 8.7433L1.5 8.74345ZM1.69067 8.18965C1.81419 8.03147 1.98704 7.91912 2.18175 7.87045L1.93925 6.9003C1.52821 7.00304 1.1633 7.24023 0.90252 7.57416L1.69067 8.18965ZM2.18203 7.87038L3.40003 7.56518L3.15697 6.59517L1.93897 6.90037L2.18203 7.87038ZM3.39933 7.56535C3.38754 7.56829 3.37524 7.5685 3.36336 7.56597L3.57138 6.58785C3.43472 6.55879 3.29324 6.56123 3.15767 6.59499L3.39933 7.56535ZM3.36336 7.56597C3.35148 7.56345 3.34032 7.55825 3.33075 7.55077L3.94637 6.76273C3.83627 6.67672 3.70803 6.61691 3.57138 6.58785L3.36336 7.56597ZM3.33075 7.55077C3.32118 7.54329 3.31343 7.53373 3.3081 7.52281L4.20681 7.08425C4.14554 6.9587 4.05647 6.84874 3.94637 6.76273L3.33075 7.55077ZM3.3081 7.52281C3.30278 7.51189 3.3 7.4999 3.3 7.48775L4.3 7.48739C4.29995 7.34768 4.26808 7.20981 4.20681 7.08425L3.3081 7.52281ZM3.3 7.48757V11.3117H4.3V7.48757H3.3ZM3.3 11.3125C3.29998 11.3004 3.30274 11.2883 3.30806 11.2774L4.20727 11.7149C4.26852 11.589 4.30024 11.4508 4.3 11.3108L3.3 11.3125ZM3.30806 11.2774C3.31339 11.2664 3.32115 11.2569 3.33074 11.2494L3.94651 12.0373C4.05682 11.9511 4.14601 11.8408 4.20727 11.7149L3.30806 11.2774ZM3.33074 11.2494C3.34033 11.2419 3.35151 11.2367 3.36342 11.2341L3.57068 12.2124C3.70765 12.1834 3.83619 12.1235 3.94651 12.0373L3.33074 11.2494ZM3.36342 11.2341C3.37533 11.2316 3.38766 11.2318 3.39947 11.2348L3.15613 12.2047C3.29193 12.2388 3.43371 12.2414 3.57068 12.2124L3.36342 11.2341ZM3.39907 11.2347L2.18107 10.9302L1.93853 11.9003L3.15653 12.2048L3.39907 11.2347ZM2.1813 10.9303C1.98668 10.8815 1.81393 10.7691 1.69049 10.6109L0.902145 11.2262C1.16274 11.5601 1.52743 11.7974 1.9383 11.9003L2.1813 10.9303ZM1.69049 10.6109C1.56705 10.4528 1.50001 10.2579 1.5 10.0573L0.5 10.0573C0.500011 10.4809 0.641554 10.8923 0.902145 11.2262L1.69049 10.6109ZM15.5 8.7433C15.4999 8.31961 15.3583 7.90809 15.0975 7.57416L14.3093 8.18965C14.4329 8.34783 14.5 8.54275 14.5 8.74345L15.5 8.7433ZM15.0975 7.57416C14.8367 7.24023 14.4718 7.00304 14.0608 6.9003L13.8183 7.87045C14.013 7.91912 14.1858 8.03147 14.3093 8.18965L15.0975 7.57416ZM14.061 6.90037L12.843 6.59517L12.6 7.56518L13.818 7.87038L14.061 6.90037ZM12.8423 6.59499C12.7068 6.56123 12.5653 6.55879 12.4286 6.58785L12.6366 7.56597C12.6248 7.5685 12.6125 7.56829 12.6007 7.56535L12.8423 6.59499ZM12.4286 6.58785C12.292 6.61691 12.1637 6.67672 12.0536 6.76273L12.6692 7.55077C12.6597 7.55825 12.6485 7.56345 12.6366 7.56597L12.4286 6.58785ZM12.0536 6.76273C11.9435 6.84874 11.8545 6.9587 11.7932 7.08425L12.6919 7.52281C12.6866 7.53372 12.6788 7.54329 12.6692 7.55077L12.0536 6.76273ZM11.7932 7.08425C11.7319 7.20981 11.7001 7.34768 11.7 7.48739L12.7 7.48775C12.7 7.4999 12.6972 7.51189 12.6919 7.52281L11.7932 7.08425ZM11.7 7.48757V11.3117H12.7V7.48757H11.7ZM11.7 11.311C11.6998 11.4509 11.7315 11.5889 11.7927 11.7147L12.6919 11.2772C12.6973 11.2882 12.7 11.3002 12.7 11.3123L11.7 11.311ZM11.7927 11.7147C11.8539 11.8404 11.9429 11.9506 12.053 12.0367L12.6693 11.2492C12.6789 11.2567 12.6866 11.2663 12.6919 11.2772L11.7927 11.7147ZM12.053 12.0367C12.1632 12.1229 12.2915 12.1829 12.4282 12.212L12.6367 11.234C12.6486 11.2365 12.6597 11.2417 12.6693 11.2492L12.053 12.0367ZM12.4282 12.212C12.565 12.2412 12.7066 12.2387 12.8423 12.205L12.6007 11.2346C12.6125 11.2317 12.6248 11.2314 12.6367 11.234L12.4282 12.212ZM12.8428 12.2048L14.0608 11.9003L13.8182 10.9302L12.6002 11.2347L12.8428 12.2048ZM14.0608 11.9003C14.4718 11.7976 14.8367 11.5604 15.0975 11.2265L14.3093 10.611C14.1858 10.7692 14.013 10.8815 13.8183 10.9302L14.0608 11.9003ZM15.0975 11.2265C15.3583 10.8926 15.4999 10.481 15.5 10.0573L14.5 10.0572C14.5 10.2579 14.4329 10.4528 14.3093 10.611L15.0975 11.2265ZM13.1 11.85V12.2H14.1V11.85H13.1ZM13.1 12.2C13.1 12.4387 13.0052 12.6676 12.8364 12.8364L13.5435 13.5435C13.8998 13.1872 14.1 12.7039 14.1 12.2H13.1ZM12.8364 12.8364C12.6676 13.0052 12.4387 13.1 12.2 13.1V14.1C12.7039 14.1 13.1872 13.8998 13.5435 13.5435L12.8364 12.8364ZM12.2 13.1H9.75V14.1H12.2V13.1ZM9.05 14.15H6.95V15.15H9.05V14.15ZM6.95 14.15C6.80413 14.15 6.66424 14.092 6.56109 13.9889L5.85398 14.696C6.14467 14.9867 6.53891 15.15 6.95 15.15V14.15ZM6.56109 13.9889C6.45795 13.8857 6.4 13.7458 6.4 13.6H5.4C5.4 14.0111 5.5633 14.4053 5.85398 14.696L6.56109 13.9889ZM6.4 13.6C6.4 13.4541 6.45795 13.3142 6.56109 13.2111L5.85398 12.504C5.5633 12.7946 5.4 13.1889 5.4 13.6H6.4ZM6.56109 13.2111C6.66424 13.1079 6.80413 13.05 6.95 13.05V12.05C6.53891 12.05 6.14467 12.2133 5.85398 12.504L6.56109 13.2111ZM6.95 13.05H9.05V12.05H6.95V13.05ZM9.05 13.05C9.19587 13.05 9.33576 13.1079 9.43891 13.2111L10.146 12.504C9.85533 12.2133 9.46109 12.05 9.05 12.05V13.05ZM9.43891 13.2111C9.54205 13.3142 9.6 13.4541 9.6 13.6H10.6C10.6 13.1889 10.4367 12.7946 10.146 12.504L9.43891 13.2111ZM9.6 13.6C9.6 13.7458 9.54205 13.8857 9.43891 13.9889L10.146 14.696C10.4367 14.4053 10.6 14.0111 10.6 13.6H9.6ZM9.43891 13.9889C9.33576 14.092 9.19587 14.15 9.05 14.15V15.15C9.46109 15.15 9.85533 14.9867 10.146 14.696L9.43891 13.9889ZM1.5 10.0573V8.74337H0.5V10.0573H1.5ZM15.5 10.0573V8.74337H14.5V10.0573H15.5Z" fill="black"/>
</svg>
