<svg width="15" height="14" viewBox="0 0 15 14" fill="none" xmlns="http://www.w3.org/2000/svg">
<path d="M7.7012 0.48667L7.70126 0.48672L7.7012 0.48667ZM1.41007 6.22724L7.74581 0.526788L14.0899 6.23217L14.0801 6.24644L13.6844 5.89045L12.85 5.13971V5.14053L12.7512 5.05157L8.08449 0.851481L7.75021 0.55063L7.41575 0.851268L2.74908 5.04597L2.65 5.13503V5.13486L1.81558 5.88561L1.41991 6.2416L1.41007 6.22724ZM12.4167 13.4231H12.628C12.5577 13.477 12.483 13.4998 12.4159 13.5C12.4157 13.5 12.4156 13.5 12.4155 13.5H3.08448C3.08437 13.5 3.08426 13.5 3.08415 13.5C3.01695 13.4998 2.94231 13.477 2.87195 13.4231H3.08333H5.88333H6.31667H6.38333H6.81667H8.68333H9.11667H9.18333H9.61667H12.4167ZM6.60464 8.11528C6.67515 8.06116 6.74997 8.03841 6.81724 8.03833H8.68276C8.75003 8.03841 8.82485 8.06116 8.89536 8.11528H8.68333H6.81667H6.60464Z" fill="#FF6A11" stroke="#3731EB"/>
</svg>
