<svg width="16" height="20" viewBox="0 0 16 20" fill="none" xmlns="http://www.w3.org/2000/svg">
<path d="M0 1.875C0 1.37772 0.210713 0.900806 0.585786 0.549175C0.960859 0.197544 1.46957 0 2 0H10C10.5304 0 11.0391 0.197544 11.4142 0.549175C11.7893 0.900806 12 1.37772 12 1.875V7.5H14C14.5304 7.5 15.0391 7.69754 15.4142 8.04917C15.7893 8.40081 16 8.87772 16 9.375V19.375C16 19.5408 15.9298 19.6997 15.8047 19.8169C15.6797 19.9342 15.5101 20 15.3333 20H12V15.625C12 15.4592 11.9298 15.3003 11.8047 15.1831C11.6797 15.0658 11.5101 15 11.3333 15H4.66667C4.48986 15 4.32029 15.0658 4.19526 15.1831C4.07024 15.3003 4 15.4592 4 15.625V20H0.666667C0.489856 20 0.320287 19.9342 0.195262 19.8169C0.070238 19.6997 0 19.5408 0 19.375V1.875ZM3.66667 5.625C3.93188 5.625 4.18624 5.52623 4.37377 5.35041C4.56131 5.1746 4.66667 4.93614 4.66667 4.6875C4.66667 4.43886 4.56131 4.2004 4.37377 4.02459C4.18624 3.84877 3.93188 3.75 3.66667 3.75C3.40145 3.75 3.1471 3.84877 2.95956 4.02459C2.77202 4.2004 2.66667 4.43886 2.66667 4.6875C2.66667 4.93614 2.77202 5.1746 2.95956 5.35041C3.1471 5.52623 3.40145 5.625 3.66667 5.625ZM4.66667 8.4375C4.66667 8.18886 4.56131 7.9504 4.37377 7.77459C4.18624 7.59877 3.93188 7.5 3.66667 7.5C3.40145 7.5 3.1471 7.59877 2.95956 7.77459C2.77202 7.9504 2.66667 8.18886 2.66667 8.4375C2.66667 8.68614 2.77202 8.9246 2.95956 9.10041C3.1471 9.27623 3.40145 9.375 3.66667 9.375C3.93188 9.375 4.18624 9.27623 4.37377 9.10041C4.56131 8.9246 4.66667 8.68614 4.66667 8.4375ZM3.66667 13.125C3.79799 13.125 3.92802 13.1007 4.04935 13.0536C4.17068 13.0065 4.28092 12.9375 4.37377 12.8504C4.46663 12.7634 4.54029 12.66 4.59055 12.5463C4.6408 12.4325 4.66667 12.3106 4.66667 12.1875C4.66667 12.0644 4.6408 11.9425 4.59055 11.8287C4.54029 11.715 4.46663 11.6116 4.37377 11.5246C4.28092 11.4375 4.17068 11.3685 4.04935 11.3214C3.92802 11.2743 3.79799 11.25 3.66667 11.25C3.40145 11.25 3.1471 11.3488 2.95956 11.5246C2.77202 11.7004 2.66667 11.9389 2.66667 12.1875C2.66667 12.4361 2.77202 12.6746 2.95956 12.8504C3.1471 13.0262 3.40145 13.125 3.66667 13.125ZM8.66667 4.6875C8.66667 4.43886 8.56131 4.2004 8.37377 4.02459C8.18624 3.84877 7.93188 3.75 7.66667 3.75C7.40145 3.75 7.1471 3.84877 6.95956 4.02459C6.77202 4.2004 6.66667 4.43886 6.66667 4.6875C6.66667 4.93614 6.77202 5.1746 6.95956 5.35041C7.1471 5.52623 7.40145 5.625 7.66667 5.625C7.93188 5.625 8.18624 5.52623 8.37377 5.35041C8.56131 5.1746 8.66667 4.93614 8.66667 4.6875ZM7.66667 9.375C7.93188 9.375 8.18624 9.27623 8.37377 9.10041C8.56131 8.9246 8.66667 8.68614 8.66667 8.4375C8.66667 8.18886 8.56131 7.9504 8.37377 7.77459C8.18624 7.59877 7.93188 7.5 7.66667 7.5C7.40145 7.5 7.1471 7.59877 6.95956 7.77459C6.77202 7.9504 6.66667 8.18886 6.66667 8.4375C6.66667 8.68614 6.77202 8.9246 6.95956 9.10041C7.1471 9.27623 7.40145 9.375 7.66667 9.375ZM8.66667 12.1875C8.66667 11.9389 8.56131 11.7004 8.37377 11.5246C8.18624 11.3488 7.93188 11.25 7.66667 11.25C7.40145 11.25 7.1471 11.3488 6.95956 11.5246C6.77202 11.7004 6.66667 11.9389 6.66667 12.1875C6.66667 12.4361 6.77202 12.6746 6.95956 12.8504C7.1471 13.0262 7.40145 13.125 7.66667 13.125C7.93188 13.125 8.18624 13.0262 8.37377 12.8504C8.56131 12.6746 8.66667 12.4361 8.66667 12.1875ZM11.6667 13.125C11.798 13.125 11.928 13.1007 12.0494 13.0536C12.1707 13.0065 12.2809 12.9375 12.3738 12.8504C12.4666 12.7634 12.5403 12.66 12.5905 12.5463C12.6408 12.4325 12.6667 12.3106 12.6667 12.1875C12.6667 12.0644 12.6408 11.9425 12.5905 11.8287C12.5403 11.715 12.4666 11.6116 12.3738 11.5246C12.2809 11.4375 12.1707 11.3685 12.0494 11.3214C11.928 11.2743 11.798 11.25 11.6667 11.25C11.4015 11.25 11.1471 11.3488 10.9596 11.5246C10.772 11.7004 10.6667 11.9389 10.6667 12.1875C10.6667 12.4361 10.772 12.6746 10.9596 12.8504C11.1471 13.0262 11.4015 13.125 11.6667 13.125ZM10.6667 16.25V20H8.66667V16.25H10.6667ZM7.33333 16.25H5.33333V20H7.33333V16.25Z" fill="#626262"/>
</svg>
