<svg width="11" height="8" viewBox="0 0 11 8" fill="none" xmlns="http://www.w3.org/2000/svg">
<path d="M10.323 5.09091H10.333H10.323ZM2.00801 4.36364C2.60301 4.36364 2.71801 5.09091 3.67301 5.09091C4.64801 5.09091 4.71801 4.36364 5.33801 4.36364C5.93301 4.36364 6.04801 5.09091 7.00301 5.09091C7.97801 5.09091 8.04801 4.36364 8.66801 4.36364C9.26301 4.36364 9.36801 5.07636 10.323 5.09091V3.63636C9.72801 3.63636 9.61301 2.90909 8.65801 2.90909C7.68301 2.90909 7.61301 3.63636 6.99301 3.63636C6.39801 3.63636 6.28301 2.90909 5.32801 2.90909C4.35301 2.90909 4.28301 3.63636 3.66301 3.63636C3.06801 3.63636 2.95301 2.90909 1.99801 2.90909C1.02301 2.90909 0.953008 3.63636 0.333008 3.63636V5.09091C1.28301 5.09091 1.41801 4.36364 2.00801 4.36364ZM8.66801 5.81818C7.69301 5.81818 7.62301 6.54545 7.00301 6.54545C6.40801 6.54545 6.29301 5.81818 5.33801 5.81818C4.36301 5.81818 4.28801 6.54545 3.66801 6.54545C3.04801 6.54545 2.97801 5.81818 2.00301 5.81818C1.02801 5.81818 0.953008 6.54545 0.333008 6.54545V8C1.30801 8 1.38801 7.27273 2.00301 7.27273C2.62301 7.27273 2.69301 8 3.66801 8C4.64301 8 4.71801 7.27273 5.33801 7.27273C5.93301 7.27273 6.04801 8 7.00301 8C7.97301 8 8.04801 7.27273 8.66801 7.27273C9.26301 7.27273 9.37801 8 10.333 8V6.54545C9.71301 6.54545 9.64301 5.81818 8.66801 5.81818ZM2.00801 1.45455C2.60301 1.45455 2.71801 2.18182 3.67301 2.18182C4.64801 2.18182 4.71801 1.45455 5.33801 1.45455C5.93301 1.45455 6.04801 2.18182 7.00301 2.18182C7.97801 2.18182 8.04801 1.45455 8.66801 1.45455C9.26301 1.45455 9.36801 2.16727 10.323 2.18182V0.727273C9.72801 0.727273 9.61301 0 8.65801 0C7.68301 0 7.61301 0.727273 6.99301 0.727273C6.39801 0.727273 6.28301 0 5.32801 0C4.35301 0 4.28301 0.727273 3.66301 0.727273C3.06801 0.727273 2.95301 0 1.99801 0C1.02301 0 0.953008 0.727273 0.333008 0.727273V2.18182C1.28301 2.18182 1.41801 1.45455 2.00801 1.45455Z" fill="black"/>
</svg>
