<svg width="12" height="13" viewBox="0 0 12 13" fill="none" xmlns="http://www.w3.org/2000/svg">
<path d="M0 6.7931H12M3.6 10.931H8.4M3.6 10.931C2.96348 10.931 2.35303 10.6695 1.90294 10.2039C1.45286 9.73824 1.2 9.10674 1.2 8.44828V3.48276C1.2 2.82429 1.45286 2.19279 1.90294 1.72718C2.35303 1.26158 2.96348 1 3.6 1H5.2V2.24138M3.6 10.931V13M8.4 10.931C9.03652 10.931 9.64697 10.6695 10.0971 10.2039C10.5471 9.73824 10.8 9.10674 10.8 8.44828V6.7931M8.4 10.931V13M4 3.48276H6.4" stroke="black"/>
</svg>
