<svg width="17" height="15" viewBox="0 0 17 15" fill="none" xmlns="http://www.w3.org/2000/svg">
<path d="M9.47017 14.5698C9.31056 14.7195 9.1342 14.8284 8.94109 14.8968C8.7485 14.9656 8.54581 15 8.33301 15C8.12021 15 7.91751 14.9656 7.72493 14.8968C7.53181 14.8284 7.35545 14.7195 7.19585 14.5698L0.791861 8.56608C0.63226 8.41646 0.515751 8.25112 0.442334 8.07008C0.36945 7.88953 0.333008 7.6995 0.333008 7.5C0.333008 7.3005 0.36945 7.11047 0.442334 6.92993C0.515751 6.74888 0.63226 6.58354 0.791861 6.43392L7.19585 0.430175C7.35545 0.280549 7.53181 0.171322 7.72493 0.102494C7.91751 0.0341646 8.12021 0 8.33301 0C8.54581 0 8.7485 0.0341646 8.94109 0.102494C9.1342 0.171322 9.31056 0.280549 9.47017 0.430175L15.8742 6.43392C16.0338 6.58354 16.1503 6.74888 16.2237 6.92993C16.2966 7.11047 16.333 7.3005 16.333 7.5C16.333 7.6995 16.2966 7.88953 16.2237 8.07008C16.1503 8.25112 16.0338 8.41646 15.8742 8.56608L9.47017 14.5698ZM8.33301 13.5037L14.737 7.5L8.33301 1.49626L1.92902 7.5L8.33301 13.5037ZM8.33301 8.24813C8.55911 8.24813 8.74877 8.17631 8.90199 8.03267C9.05467 7.88953 9.13101 7.71197 9.13101 7.5V4.50748C9.13101 4.29551 9.05467 4.11771 8.90199 3.97407C8.74877 3.83092 8.55911 3.75935 8.33301 3.75935C8.10691 3.75935 7.91751 3.83092 7.76483 3.97407C7.61161 4.11771 7.535 4.29551 7.535 4.50748V7.5C7.535 7.71197 7.61161 7.88953 7.76483 8.03267C7.91751 8.17631 8.10691 8.24813 8.33301 8.24813ZM8.33301 10.4925C8.55911 10.4925 8.74877 10.4207 8.90199 10.2771C9.05467 10.1339 9.13101 9.95636 9.13101 9.74439C9.13101 9.53242 9.05467 9.35461 8.90199 9.21097C8.74877 9.06783 8.55911 8.99626 8.33301 8.99626C8.10691 8.99626 7.91751 9.06783 7.76483 9.21097C7.61161 9.35461 7.535 9.53242 7.535 9.74439C7.535 9.95636 7.61161 10.1339 7.76483 10.2771C7.91751 10.4207 8.10691 10.4925 8.33301 10.4925Z" fill="black"/>
</svg>
