<svg width="11" height="16" viewBox="0 0 11 16" fill="none" xmlns="http://www.w3.org/2000/svg">
<path d="M5.49767 2.67378C4.96877 2.67378 4.45175 2.82855 4.01198 3.11852C3.57222 3.40849 3.22946 3.82063 3.02706 4.30284C2.82466 4.78504 2.7717 5.31564 2.87489 5.82754C2.97807 6.33944 3.23276 6.80966 3.60675 7.17872C3.98074 7.54778 4.45723 7.79911 4.97596 7.90094C5.4947 8.00276 6.03238 7.9505 6.52102 7.75077C7.00966 7.55103 7.42731 7.21279 7.72115 6.77882C8.01499 6.34485 8.17183 5.83464 8.17183 5.31271C8.17183 4.61282 7.89009 3.9416 7.38858 3.44671C6.88708 2.95181 6.2069 2.67378 5.49767 2.67378ZM5.49767 7.03055C5.15337 7.03055 4.81681 6.9298 4.53054 6.74104C4.24428 6.55228 4.02116 6.28399 3.8894 5.9701C3.75765 5.65621 3.72317 5.31081 3.79034 4.97758C3.85751 4.64435 4.0233 4.33826 4.26675 4.09802C4.51021 3.85777 4.82038 3.69416 5.15806 3.62788C5.49574 3.5616 5.84575 3.59562 6.16383 3.72564C6.48192 3.85565 6.75379 4.07583 6.94507 4.35833C7.13634 4.64083 7.23844 4.97296 7.23844 5.31271C7.2372 5.76751 7.05326 6.20327 6.72693 6.52443C6.40061 6.84559 5.95854 7.02595 5.49767 7.02595V7.03055Z" fill="black"/>
<path d="M5.49767 0.5C4.044 0.501198 2.64989 1.07001 1.61981 2.08221C0.58973 3.0944 0.00739727 4.46772 0 5.90221C0 8.05296 1.22274 9.8537 2.1188 11.1663L2.28214 11.4057C3.17366 12.6808 4.13005 13.9105 5.14765 15.0901L5.50233 15.5L5.85702 15.0901C6.87449 13.9104 7.83088 12.6807 8.72253 11.4057L8.88587 11.1617C9.77726 9.84909 11 8.05296 11 5.90221C10.9926 4.46692 10.4096 3.09291 9.37854 2.08058C8.34745 1.06826 6.95214 0.499981 5.49767 0.5ZM8.10649 10.632L7.93848 10.8761C7.13577 12.0643 6.0717 13.3953 5.49767 14.0539C4.94697 13.3953 3.85957 12.0643 3.05685 10.8761L2.89351 10.632C2.06746 9.41618 0.93339 7.75361 0.93339 5.88379C0.93339 5.2923 1.05145 4.7066 1.28082 4.16013C1.5102 3.61366 1.8464 3.11713 2.27024 2.69888C2.69407 2.28063 3.19723 1.94886 3.75099 1.7225C4.30476 1.49615 4.89828 1.37964 5.49767 1.37964C6.09706 1.37964 6.69058 1.49615 7.24434 1.7225C7.7981 1.94886 8.30126 2.28063 8.7251 2.69888C9.14893 3.11713 9.48513 3.61366 9.71451 4.16013C9.94388 4.7066 10.0619 5.2923 10.0619 5.88379C10.0619 7.77203 8.93254 9.4346 8.10649 10.632Z" fill="black"/>
</svg>
