<svg width="16" height="16" viewBox="0 0 16 16" fill="none" xmlns="http://www.w3.org/2000/svg">
<path d="M12.7383 5.03738C12.1152 5.03738 11.5177 4.78988 11.0772 4.34932C10.6366 3.90876 10.3891 3.31123 10.3891 2.68819C10.3891 2.06514 10.6366 1.46761 11.0772 1.02705C11.5177 0.586493 12.1152 0.338989 12.7383 0.338989C13.3613 0.338989 13.9589 0.586493 14.3994 1.02705C14.84 1.46761 15.0875 2.06514 15.0875 2.68819C15.0875 3.31123 14.84 3.90876 14.3994 4.34932C13.9589 4.78988 13.3613 5.03738 12.7383 5.03738Z" fill="#F46817"/>
<path fill-rule="evenodd" clip-rule="evenodd" d="M13.1203 11.2023C13.4498 11.7119 13.8464 12.1748 14.2994 12.5787C14.3495 12.6227 14.3897 12.6769 14.4172 12.7376C14.4448 12.7984 14.4591 12.8643 14.4591 12.931V13.5699C14.4591 13.6945 14.4096 13.8139 14.3215 13.902C14.2334 13.9901 14.114 14.0396 13.9894 14.0396H0.929968C0.805379 14.0396 0.685893 13.9901 0.597795 13.902C0.509698 13.8139 0.460205 13.6945 0.460205 13.5699V12.931C0.46029 12.8643 0.474577 12.7984 0.502116 12.7376C0.529655 12.6769 0.569816 12.6227 0.619925 12.5787C1.06629 12.1736 1.45652 11.7107 1.78024 11.2023C2.13997 10.4988 2.35558 9.7306 2.41442 8.9427V6.62207C2.41147 5.39605 2.85218 4.21036 3.65517 3.2839C4.45816 2.35744 5.56921 1.75277 6.78321 1.58151V0.966123C6.78321 0.799797 6.84929 0.640283 6.9669 0.522672C7.08451 0.405062 7.24402 0.338989 7.41035 0.338989C7.57667 0.338989 7.73619 0.405062 7.8538 0.522672C7.97141 0.640283 8.03748 0.799797 8.03748 0.966123V1.55802C8.57965 1.62778 9.10659 1.7865 9.59709 2.02779V2.32374C9.60519 2.60163 9.64618 2.87758 9.71923 3.14582C9.05664 2.7053 8.27883 2.47 7.48316 2.46936C6.93949 2.47059 6.40141 2.57905 5.89972 2.78853C5.39802 2.998 4.94258 3.30438 4.55946 3.69012C4.17634 4.07586 3.87307 4.53338 3.66701 5.03649C3.46096 5.53959 3.35617 6.07841 3.35864 6.62207V8.94739C3.30106 9.90854 3.03667 10.8459 2.58353 11.6955C2.25921 12.2094 1.87438 12.6826 1.43731 13.1048H13.4679C13.0309 12.6826 12.646 12.2094 12.3217 11.6955C11.8686 10.8459 11.6042 9.90854 11.5466 8.94739V6.62677C11.5468 6.20627 11.4834 5.78817 11.3587 5.38659C11.6859 5.57403 12.0412 5.70728 12.411 5.78119C12.4591 6.05894 12.4842 6.34019 12.4861 6.62207V8.9427C12.545 9.7306 12.7606 10.4988 13.1203 11.2023ZM8.28491 15.2946C8.06311 15.4906 7.77913 15.6018 7.48321 15.6086C7.17919 15.613 6.88393 15.5068 6.65234 15.3098C6.42076 15.1128 6.26863 14.8384 6.22425 14.5376H8.6952C8.65204 14.8304 8.50671 15.0986 8.28491 15.2946Z" fill="white"/>
</svg>
