<svg width="11" height="14" viewBox="0 0 11 14" fill="none" xmlns="http://www.w3.org/2000/svg">
<path d="M0.25 1.75003C0.25 1.28589 0.425595 0.840765 0.738155 0.512571C1.05072 0.184377 1.47464 0 1.91667 0L8.58333 0C9.02536 0 9.44928 0.184377 9.76184 0.512571C10.0744 0.840765 10.25 1.28589 10.25 1.75003V13.5627C10.25 13.6419 10.2295 13.7195 10.1907 13.7874C10.152 13.8553 10.0964 13.9108 10.03 13.9482C9.96356 13.9856 9.88871 14.0033 9.81342 13.9995C9.73814 13.9957 9.66525 13.9706 9.6025 13.9267L5.25 11.4636L0.8975 13.9267C0.834754 13.9706 0.761859 13.9957 0.686576 13.9995C0.611294 14.0033 0.536444 13.9856 0.47 13.9482C0.403555 13.9108 0.348003 13.8553 0.309262 13.7874C0.27052 13.7195 0.250039 13.6419 0.25 13.5627V1.75003ZM1.91667 0.875014C1.69565 0.875014 1.48369 0.967203 1.32741 1.1313C1.17113 1.2954 1.08333 1.51796 1.08333 1.75003V12.7455L5.01917 10.5737C5.08755 10.5259 5.16786 10.5004 5.25 10.5004C5.33214 10.5004 5.41245 10.5259 5.48083 10.5737L9.41667 12.7455V1.75003C9.41667 1.51796 9.32887 1.2954 9.17259 1.1313C9.01631 0.967203 8.80435 0.875014 8.58333 0.875014H1.91667Z" fill="#626262"/>
</svg>
