<svg width="14" height="14" viewBox="0 0 14 14" fill="none" xmlns="http://www.w3.org/2000/svg">
<path opacity="0.5" d="M7 3.44779C6.29744 3.44779 5.61066 3.65612 5.0265 4.04645C4.44234 4.43677 3.98705 4.99155 3.71819 5.64063C3.44933 6.28971 3.37898 7.00394 3.51605 7.693C3.65311 8.38206 3.99142 9.01501 4.48821 9.51179C4.98499 10.0086 5.61794 10.3469 6.307 10.484C6.99606 10.621 7.71029 10.5507 8.35937 10.2818C9.00845 10.013 9.56323 9.55766 9.95355 8.9735C10.3439 8.38934 10.5522 7.70256 10.5522 7C10.5522 6.0579 10.178 5.15438 9.51179 4.48821C8.84562 3.82204 7.9421 3.44779 7 3.44779ZM7 9.76283C6.45356 9.76283 5.9194 9.60079 5.46505 9.29721C5.01071 8.99363 4.65659 8.56213 4.44748 8.05729C4.23837 7.55245 4.18365 6.99694 4.29026 6.461C4.39686 5.92506 4.66 5.43277 5.04638 5.04638C5.43277 4.66 5.92506 4.39686 6.461 4.29026C6.99694 4.18365 7.55245 4.23837 8.05729 4.44748C8.56213 4.65659 8.99363 5.01071 9.29721 5.46505C9.60079 5.9194 9.76283 6.45356 9.76283 7C9.76283 7.73275 9.47175 8.43548 8.95362 8.95362C8.43548 9.47175 7.73275 9.76283 7 9.76283ZM13.9202 8.55245L12.9138 7.2105C12.9203 7.06578 12.9138 6.90133 12.9138 6.7895L13.9202 5.44755C13.9566 5.39937 13.9815 5.34347 13.9929 5.28417C14.0043 5.22487 14.0019 5.16374 13.986 5.10549C13.8235 4.50936 13.5847 3.93671 13.2756 3.40174C13.2461 3.34989 13.2054 3.30527 13.1564 3.27113C13.1075 3.23699 13.0516 3.2142 12.9927 3.2044L11.335 2.96758C11.2363 2.86233 11.1377 2.76366 11.0324 2.66499L10.7956 1.00729C10.787 0.948876 10.7654 0.893138 10.7324 0.844183C10.6993 0.795229 10.6558 0.754306 10.6048 0.72443C10.0665 0.41749 9.49192 0.178838 8.89451 0.0139881C8.83626 -0.00194671 8.77513 -0.00430253 8.71583 0.00710191C8.65653 0.0185064 8.60063 0.0433669 8.55245 0.0797698L7.21708 1.08623C7.07236 1.08184 6.92764 1.08184 6.78292 1.08623L5.44755 0.0797698C5.39937 0.0433669 5.34347 0.0185064 5.28417 0.00710191C5.22487 -0.00430253 5.16374 -0.00194671 5.10549 0.0139881C4.50936 0.176474 3.93671 0.415262 3.40174 0.72443C3.34989 0.753941 3.30527 0.794645 3.27113 0.843576C3.23699 0.892508 3.2142 0.948437 3.2044 1.00729L2.96758 2.66499C2.86233 2.76366 2.76366 2.86233 2.66499 2.96758L1.00729 3.2044C0.948876 3.21301 0.893138 3.23462 0.844183 3.26764C0.795229 3.30066 0.754306 3.34423 0.72443 3.39517C0.41749 3.93355 0.178838 4.50808 0.0139881 5.10549C-0.00194671 5.16374 -0.00430253 5.22487 0.00710191 5.28417C0.0185064 5.34347 0.0433669 5.39937 0.0797698 5.44755L1.08623 6.7895C1.07965 6.93422 1.08623 7.09867 1.08623 7.2105L0.0797698 8.55245C0.0433669 8.60063 0.0185064 8.65653 0.00710191 8.71583C-0.00430253 8.77513 -0.00194671 8.83626 0.0139881 8.89451C0.176474 9.49064 0.415262 10.0633 0.72443 10.5983C0.75277 10.6511 0.793146 10.6964 0.842289 10.7307C0.891431 10.765 0.947958 10.7872 1.00729 10.7956L2.66499 11.0324L2.96758 11.335L3.2044 12.9927C3.2142 13.0516 3.23699 13.1075 3.27113 13.1564C3.30527 13.2054 3.34989 13.2461 3.40174 13.2756C3.93729 13.5836 4.50978 13.8223 5.10549 13.986L5.21074 13.9992C5.29614 13.9992 5.37923 13.9715 5.44755 13.9202L6.78292 12.9138H7.21708L8.55245 13.9202C8.60063 13.9566 8.65653 13.9815 8.71583 13.9929C8.77513 14.0043 8.83626 14.0019 8.89451 13.986C9.49232 13.8223 10.067 13.5836 10.6048 13.2756C10.6558 13.2457 10.6993 13.2048 10.7324 13.1558C10.7654 13.1069 10.787 13.0511 10.7956 12.9927L11.0324 11.335C11.1377 11.2363 11.2495 11.1179 11.3284 11.0324L12.9927 10.7956C13.0511 10.787 13.1069 10.7654 13.1558 10.7324C13.2048 10.6993 13.2457 10.6558 13.2756 10.6048C13.5825 10.0665 13.8212 9.49192 13.986 8.89451C14.0019 8.83626 14.0043 8.77513 13.9929 8.71583C13.9815 8.65653 13.9566 8.60063 13.9202 8.55245ZM12.6835 10.0391L11.085 10.2693C10.9961 10.2844 10.9136 10.3256 10.8482 10.3878C10.7693 10.4798 10.5259 10.7298 10.4009 10.8416C10.33 10.905 10.2835 10.9911 10.2693 11.085L10.0391 12.6835C9.66677 12.886 9.27434 13.0491 8.8682 13.1703L7.5723 12.1968C7.49776 12.1436 7.40707 12.118 7.31575 12.1244H6.68425C6.59293 12.118 6.50224 12.1436 6.4277 12.1968L5.1318 13.1703C4.72463 13.052 4.33191 12.8888 3.96089 12.6835L3.73065 11.085C3.7165 10.9911 3.66996 10.905 3.59909 10.8416C3.44247 10.7048 3.29523 10.5575 3.15835 10.4009C3.09503 10.33 3.00894 10.2835 2.91496 10.2693L1.31646 10.0391C1.114 9.66677 0.950854 9.27434 0.829681 8.8682L1.80325 7.5723C1.85549 7.4995 1.88315 7.41193 1.88219 7.32233C1.87561 7.20392 1.86903 6.85528 1.87561 6.68425C1.88197 6.59293 1.85639 6.50224 1.80325 6.4277L0.829681 5.1318C0.947964 4.72463 1.11123 4.33191 1.31646 3.96089L2.91496 3.73065C3.00894 3.7165 3.09503 3.66996 3.15835 3.59909C3.29523 3.44247 3.44247 3.29523 3.59909 3.15835C3.66996 3.09503 3.7165 3.00894 3.73065 2.91496L3.96089 1.31646C4.33324 1.114 4.72566 0.950854 5.1318 0.829681L6.4277 1.80325C6.50224 1.85639 6.59293 1.88197 6.68425 1.87561C6.89475 1.87122 7.10525 1.87122 7.31575 1.87561C7.40707 1.88197 7.49776 1.85639 7.5723 1.80325L8.8682 0.829681C9.27537 0.947964 9.66809 1.11123 10.0391 1.31646L10.2693 2.91496C10.2835 3.00894 10.33 3.09503 10.4009 3.15835C10.5575 3.29523 10.7048 3.44247 10.8416 3.59909C10.905 3.66996 10.9911 3.7165 11.085 3.73065L12.6835 3.96089C12.886 4.33324 13.0491 4.72566 13.1703 5.1318L12.1968 6.4277C12.1445 6.5005 12.1169 6.58807 12.1178 6.67767C12.1244 6.79608 12.131 7.14472 12.1244 7.31575C12.118 7.40707 12.1436 7.49776 12.1968 7.5723L13.1703 8.8682C13.052 9.27537 12.8888 9.66809 12.6835 10.0391Z" fill="black"/>
</svg>
