<svg width="15" height="12" viewBox="0 0 15 12" fill="none" xmlns="http://www.w3.org/2000/svg">
<path d="M4.37116 7.84412L3.14616 6.45294C3.71977 5.81667 4.39313 5.31261 5.16624 4.94076C5.93896 4.56849 6.77255 4.38235 7.66699 4.38235C8.56144 4.38235 9.39521 4.57108 10.1683 4.94853C10.941 5.32598 11.6142 5.83824 12.1878 6.48529L10.9628 7.84412C10.535 7.36961 10.0392 6.99755 9.47533 6.72794C8.91144 6.45833 8.30866 6.32353 7.66699 6.32353C7.02533 6.32353 6.42255 6.45833 5.85866 6.72794C5.29477 6.99755 4.79894 7.36961 4.37116 7.84412ZM1.89199 5.09412L0.666992 3.73529C1.56144 2.72157 2.60658 1.92892 3.80241 1.35735C4.99824 0.785784 6.28644 0.5 7.66699 0.5C9.04755 0.5 10.3357 0.785784 11.5316 1.35735C12.7274 1.92892 13.7725 2.72157 14.667 3.73529L13.442 5.09412C12.6934 4.26373 11.8258 3.61386 10.8392 3.14453C9.85216 2.67563 8.79477 2.44118 7.66699 2.44118C6.53921 2.44118 5.48183 2.67563 4.49483 3.14453C3.50821 3.61386 2.6406 4.26373 1.89199 5.09412ZM7.66699 11.5L9.72324 9.20294C9.46074 8.91177 9.15449 8.68249 8.80449 8.51512C8.45449 8.34818 8.07533 8.26471 7.66699 8.26471C7.25866 8.26471 6.87949 8.34818 6.52949 8.51512C6.17949 8.68249 5.87324 8.91177 5.61074 9.20294L7.66699 11.5Z" fill="black"/>
</svg>
