<svg width="25" height="28" viewBox="0 0 25 28" fill="none" xmlns="http://www.w3.org/2000/svg">
<path d="M17.7546 24.7466L7.76392 14H17.5507L7.23381 2.90259H6.09202C4.35242 4.08644 2.92012 5.72522 1.9289 7.66588C0.937684 9.60654 0.41988 11.7858 0.423851 14C0.423851 21.2813 5.88813 27.159 12.6573 27.159C14.4515 27.159 16.205 26.7204 17.7546 25.9747V24.7466Z" fill="#ED4C5C"/>
<path d="M12.6578 0.841064C10.8636 0.841064 9.11012 1.2797 7.56055 2.02538V4.13082L16.124 13.3421H7.56055V14.7458L17.1842 25.0975H19.2231C22.6485 22.7728 24.8913 18.6496 24.8913 14.0001C24.8913 6.71876 19.427 0.841064 12.6578 0.841064Z" fill="#F9F9F9"/>
<path d="M7.5601 2.02539C7.02999 2.28857 6.54065 2.55175 6.05131 2.90266L15.5934 13.1228H5.80664L17.7546 25.9748C18.2848 25.7116 18.7741 25.4484 19.2634 25.0975L9.72135 14.8774H19.5081L7.5601 2.02539Z" fill="#428BC1"/>
<path d="M7.59983 9.52613C7.72217 9.30681 7.76294 8.99977 7.76294 8.73659C7.76294 7.7716 7.02894 6.98206 6.13182 6.98206C5.2347 6.98206 4.50069 7.7716 4.50069 8.73659C4.50069 9.04363 4.58225 9.30681 4.6638 9.52613C3.88902 9.17522 3.27734 8.73659 3.27734 8.73659C3.27734 8.73659 3.88902 11.3684 6.13182 11.3684C8.4154 11.3684 8.98629 8.73659 8.98629 8.73659C8.98629 8.73659 8.37462 9.17522 7.59983 9.52613ZM6.13182 17.3338L6.78427 16.632L7.02894 17.597L7.92606 17.3338L7.68139 18.2988L8.57851 18.562L7.92606 19.2638L8.57851 19.9656L7.68139 20.2288L7.92606 21.1938L7.02894 20.9306L6.78427 21.8956L6.13182 21.1938L5.47937 21.8956L5.2347 20.9306L4.33758 21.1938L4.58225 20.2288L3.68513 19.9656L4.33758 19.2638L3.68513 18.562L4.58225 18.2988L4.33758 17.3338L5.2347 17.597L5.47937 16.632L6.13182 17.3338Z" fill="white"/>
</svg>
