<svg width="40" height="41" viewBox="0 0 40 41" fill="none" xmlns="http://www.w3.org/2000/svg">
<rect x="0.5" y="0.692993" width="39" height="39" rx="19.5" fill="white"/>
<path d="M31.306 20.4503C31.306 19.4984 31.229 18.8037 31.0624 18.0833H20.2304V22.3798H26.5886C26.4604 23.4476 25.7682 25.0556 24.2299 26.1361L24.2083 26.2799L27.6332 28.9424L27.8705 28.9662C30.0497 26.9465 31.306 23.975 31.306 20.4503Z" fill="#4285F4"/>
<path d="M20.2304 31.7705C23.3454 31.7705 25.9604 30.7414 27.8705 28.9662L24.2299 26.1361C23.2557 26.8179 21.9481 27.2938 20.2304 27.2938C17.1795 27.2938 14.5901 25.2743 13.6671 22.4828L13.5318 22.4943L9.97053 25.2601L9.92395 25.39C11.8211 29.1719 15.7181 31.7705 20.2304 31.7705Z" fill="#34A853"/>
<path d="M13.6671 22.4828C13.4235 21.7624 13.2826 20.9905 13.2826 20.193C13.2826 19.3954 13.4235 18.6236 13.6542 17.9032L13.6478 17.7498L10.0419 14.9396L9.92395 14.9959C9.14203 16.5653 8.69336 18.3277 8.69336 20.193C8.69336 22.0583 9.14203 23.8206 9.92395 25.39L13.6671 22.4828Z" fill="#FBBC05"/>
<path d="M20.2304 13.0921C22.3968 13.0921 23.8581 14.0312 24.6914 14.8159L27.9474 11.6256C25.9477 9.76037 23.3454 8.61548 20.2304 8.61548C15.7181 8.61548 11.8211 11.214 9.92395 14.9959L13.6542 17.9032C14.5901 15.1117 17.1795 13.0921 20.2304 13.0921Z" fill="#EB4335"/>
<rect x="0.5" y="0.692993" width="39" height="39" rx="19.5" stroke="#EDEDED"/>
</svg>
